<mxfile host="app.diagrams.net" agent="Mozilla/5.0 (Windows NT 10.0; Win64; x64) AppleWebKit/537.36 (KHTML, like Gecko) Chrome/131.0.0.0 Safari/537.36" version="25.0.3">
  <diagram name="Страница — 1" id="ugE3qtjWM7i1w_WjIpXW">
    <mxGraphModel dx="1434" dy="772" grid="1" gridSize="10" guides="1" tooltips="1" connect="1" arrows="1" fold="1" page="1" pageScale="1" pageWidth="827" pageHeight="1169" math="0" shadow="0">
      <root>
        <mxCell id="0" />
        <mxCell id="1" parent="0" />
        <mxCell id="SOP-DNlCB-dcbDB7mBKT-14" value="student" style="swimlane;fontStyle=0;childLayout=stackLayout;horizontal=1;startSize=26;horizontalStack=0;resizeParent=1;resizeParentMax=0;resizeLast=0;collapsible=1;marginBottom=0;align=center;fontSize=14;" parent="1" vertex="1">
          <mxGeometry x="170" y="200" width="206" height="296" as="geometry" />
        </mxCell>
        <mxCell id="SOP-DNlCB-dcbDB7mBKT-15" value="PK id&amp;nbsp; &amp;nbsp; &amp;nbsp; &amp;nbsp; &amp;nbsp; &amp;nbsp; &amp;nbsp; &amp;nbsp; &amp;nbsp; &amp;nbsp; &amp;nbsp; &amp;nbsp; &amp;nbsp; &amp;nbsp; &amp;nbsp; &amp;nbsp; INTEGER" style="text;strokeColor=none;fillColor=none;spacingLeft=4;spacingRight=4;overflow=hidden;rotatable=0;points=[[0,0.5],[1,0.5]];portConstraint=eastwest;fontSize=12;whiteSpace=wrap;html=1;" parent="SOP-DNlCB-dcbDB7mBKT-14" vertex="1">
          <mxGeometry y="26" width="206" height="30" as="geometry" />
        </mxCell>
        <mxCell id="SOP-DNlCB-dcbDB7mBKT-16" value="&amp;nbsp; &amp;nbsp; &amp;nbsp; first_name&amp;nbsp; &amp;nbsp; &amp;nbsp; &amp;nbsp; &amp;nbsp; &amp;nbsp; &amp;nbsp; &amp;nbsp; &amp;nbsp; TEXT" style="text;strokeColor=none;fillColor=none;spacingLeft=4;spacingRight=4;overflow=hidden;rotatable=0;points=[[0,0.5],[1,0.5]];portConstraint=eastwest;fontSize=12;whiteSpace=wrap;html=1;" parent="SOP-DNlCB-dcbDB7mBKT-14" vertex="1">
          <mxGeometry y="56" width="206" height="30" as="geometry" />
        </mxCell>
        <mxCell id="SOP-DNlCB-dcbDB7mBKT-17" value="&amp;nbsp; &amp;nbsp; &amp;nbsp; name&amp;nbsp; &amp;nbsp; &amp;nbsp; &amp;nbsp; &amp;nbsp; &amp;nbsp; &amp;nbsp; &amp;nbsp; &amp;nbsp; &amp;nbsp; &amp;nbsp; &amp;nbsp; &amp;nbsp; TEXT" style="text;strokeColor=none;fillColor=none;spacingLeft=4;spacingRight=4;overflow=hidden;rotatable=0;points=[[0,0.5],[1,0.5]];portConstraint=eastwest;fontSize=12;whiteSpace=wrap;html=1;" parent="SOP-DNlCB-dcbDB7mBKT-14" vertex="1">
          <mxGeometry y="86" width="206" height="30" as="geometry" />
        </mxCell>
        <mxCell id="SOP-DNlCB-dcbDB7mBKT-19" value="&amp;nbsp; &amp;nbsp; &amp;nbsp; patronymic&amp;nbsp; &amp;nbsp; &amp;nbsp; &amp;nbsp; &amp;nbsp; &amp;nbsp; &amp;nbsp; &amp;nbsp; &amp;nbsp; TEXT" style="text;strokeColor=none;fillColor=none;spacingLeft=4;spacingRight=4;overflow=hidden;rotatable=0;points=[[0,0.5],[1,0.5]];portConstraint=eastwest;fontSize=12;whiteSpace=wrap;html=1;" parent="SOP-DNlCB-dcbDB7mBKT-14" vertex="1">
          <mxGeometry y="116" width="206" height="30" as="geometry" />
        </mxCell>
        <mxCell id="SOP-DNlCB-dcbDB7mBKT-22" value="&amp;nbsp; &amp;nbsp; &amp;nbsp; telegram&amp;nbsp; &amp;nbsp; &amp;nbsp; &amp;nbsp; &amp;nbsp; &amp;nbsp; &amp;nbsp; &amp;nbsp; &amp;nbsp; &amp;nbsp; &amp;nbsp;TEXT" style="text;strokeColor=none;fillColor=none;spacingLeft=4;spacingRight=4;overflow=hidden;rotatable=0;points=[[0,0.5],[1,0.5]];portConstraint=eastwest;fontSize=12;whiteSpace=wrap;html=1;" parent="SOP-DNlCB-dcbDB7mBKT-14" vertex="1">
          <mxGeometry y="146" width="206" height="30" as="geometry" />
        </mxCell>
        <mxCell id="SOP-DNlCB-dcbDB7mBKT-21" value="&amp;nbsp; &amp;nbsp; &amp;nbsp; email&amp;nbsp; &amp;nbsp; &amp;nbsp; &amp;nbsp; &amp;nbsp; &amp;nbsp; &amp;nbsp; &amp;nbsp; &amp;nbsp; &amp;nbsp; &amp;nbsp; &amp;nbsp; &amp;nbsp; &amp;nbsp;TEXT" style="text;strokeColor=none;fillColor=none;spacingLeft=4;spacingRight=4;overflow=hidden;rotatable=0;points=[[0,0.5],[1,0.5]];portConstraint=eastwest;fontSize=12;whiteSpace=wrap;html=1;" parent="SOP-DNlCB-dcbDB7mBKT-14" vertex="1">
          <mxGeometry y="176" width="206" height="30" as="geometry" />
        </mxCell>
        <mxCell id="SOP-DNlCB-dcbDB7mBKT-20" value="&amp;nbsp; &amp;nbsp; &amp;nbsp; phone_number&amp;nbsp; &amp;nbsp; &amp;nbsp; &amp;nbsp; &amp;nbsp; &amp;nbsp;TEXT" style="text;strokeColor=none;fillColor=none;spacingLeft=4;spacingRight=4;overflow=hidden;rotatable=0;points=[[0,0.5],[1,0.5]];portConstraint=eastwest;fontSize=12;whiteSpace=wrap;html=1;" parent="SOP-DNlCB-dcbDB7mBKT-14" vertex="1">
          <mxGeometry y="206" width="206" height="30" as="geometry" />
        </mxCell>
        <mxCell id="IYhdNa84on3Fd5ZApfqV-1" value="&amp;nbsp; &amp;nbsp; &amp;nbsp; git&amp;nbsp; &amp;nbsp; &amp;nbsp; &amp;nbsp; &amp;nbsp; &amp;nbsp; &amp;nbsp; &amp;nbsp; &amp;nbsp; &amp;nbsp; &amp;nbsp; &amp;nbsp; &amp;nbsp; &amp;nbsp; &amp;nbsp; &amp;nbsp; TEXT" style="text;strokeColor=none;fillColor=none;spacingLeft=4;spacingRight=4;overflow=hidden;rotatable=0;points=[[0,0.5],[1,0.5]];portConstraint=eastwest;fontSize=12;whiteSpace=wrap;html=1;" parent="SOP-DNlCB-dcbDB7mBKT-14" vertex="1">
          <mxGeometry y="236" width="206" height="30" as="geometry" />
        </mxCell>
        <mxCell id="IYhdNa84on3Fd5ZApfqV-2" value="&amp;nbsp; &amp;nbsp; &amp;nbsp; birthdate&amp;nbsp; &amp;nbsp; &amp;nbsp; &amp;nbsp; &amp;nbsp; &amp;nbsp; &amp;nbsp; &amp;nbsp; &amp;nbsp; &amp;nbsp; &amp;nbsp;TEXT" style="text;strokeColor=none;fillColor=none;spacingLeft=4;spacingRight=4;overflow=hidden;rotatable=0;points=[[0,0.5],[1,0.5]];portConstraint=eastwest;fontSize=12;whiteSpace=wrap;html=1;" parent="SOP-DNlCB-dcbDB7mBKT-14" vertex="1">
          <mxGeometry y="266" width="206" height="30" as="geometry" />
        </mxCell>
        <mxCell id="tPTqhTPvPvKgibS04VH2-1" value="lab" style="swimlane;fontStyle=0;childLayout=stackLayout;horizontal=1;startSize=26;horizontalStack=0;resizeParent=1;resizeParentMax=0;resizeLast=0;collapsible=1;marginBottom=0;align=center;fontSize=14;" vertex="1" parent="1">
          <mxGeometry x="530" y="240" width="206" height="176" as="geometry" />
        </mxCell>
        <mxCell id="tPTqhTPvPvKgibS04VH2-2" value="PK id&amp;nbsp; &amp;nbsp; &amp;nbsp; &amp;nbsp; &amp;nbsp; &amp;nbsp; &amp;nbsp; &amp;nbsp; &amp;nbsp; &amp;nbsp; &amp;nbsp; &amp;nbsp; &amp;nbsp; &amp;nbsp; &amp;nbsp; &amp;nbsp; INTEGER" style="text;strokeColor=none;fillColor=none;spacingLeft=4;spacingRight=4;overflow=hidden;rotatable=0;points=[[0,0.5],[1,0.5]];portConstraint=eastwest;fontSize=12;whiteSpace=wrap;html=1;" vertex="1" parent="tPTqhTPvPvKgibS04VH2-1">
          <mxGeometry y="26" width="206" height="30" as="geometry" />
        </mxCell>
        <mxCell id="tPTqhTPvPvKgibS04VH2-3" value="&amp;nbsp; &amp;nbsp; &amp;nbsp; name&amp;nbsp; &amp;nbsp; &amp;nbsp; &amp;nbsp; &amp;nbsp; &amp;nbsp; &amp;nbsp; &amp;nbsp; &amp;nbsp; &amp;nbsp; &amp;nbsp; &amp;nbsp; &amp;nbsp; TEXT" style="text;strokeColor=none;fillColor=none;spacingLeft=4;spacingRight=4;overflow=hidden;rotatable=0;points=[[0,0.5],[1,0.5]];portConstraint=eastwest;fontSize=12;whiteSpace=wrap;html=1;" vertex="1" parent="tPTqhTPvPvKgibS04VH2-1">
          <mxGeometry y="56" width="206" height="30" as="geometry" />
        </mxCell>
        <mxCell id="tPTqhTPvPvKgibS04VH2-6" value="&amp;nbsp; &amp;nbsp; &amp;nbsp; topics&amp;nbsp; &amp;nbsp; &amp;nbsp; &amp;nbsp; &amp;nbsp; &amp;nbsp; &amp;nbsp; &amp;nbsp; &amp;nbsp; &amp;nbsp; &amp;nbsp; &amp;nbsp; &amp;nbsp; TEXT" style="text;strokeColor=none;fillColor=none;spacingLeft=4;spacingRight=4;overflow=hidden;rotatable=0;points=[[0,0.5],[1,0.5]];portConstraint=eastwest;fontSize=12;whiteSpace=wrap;html=1;" vertex="1" parent="tPTqhTPvPvKgibS04VH2-1">
          <mxGeometry y="86" width="206" height="30" as="geometry" />
        </mxCell>
        <mxCell id="tPTqhTPvPvKgibS04VH2-7" value="&amp;nbsp; &amp;nbsp; &amp;nbsp; tasks&amp;nbsp; &amp;nbsp; &amp;nbsp; &amp;nbsp; &amp;nbsp; &amp;nbsp; &amp;nbsp; &amp;nbsp; &amp;nbsp; &amp;nbsp; &amp;nbsp; &amp;nbsp; &amp;nbsp; &amp;nbsp;TEXT" style="text;strokeColor=none;fillColor=none;spacingLeft=4;spacingRight=4;overflow=hidden;rotatable=0;points=[[0,0.5],[1,0.5]];portConstraint=eastwest;fontSize=12;whiteSpace=wrap;html=1;" vertex="1" parent="tPTqhTPvPvKgibS04VH2-1">
          <mxGeometry y="116" width="206" height="30" as="geometry" />
        </mxCell>
        <mxCell id="tPTqhTPvPvKgibS04VH2-8" value="&amp;nbsp; &amp;nbsp; &amp;nbsp; date_of_issue&amp;nbsp; &amp;nbsp; &amp;nbsp; &amp;nbsp; &amp;nbsp; &amp;nbsp; &amp;nbsp;TEXT" style="text;strokeColor=none;fillColor=none;spacingLeft=4;spacingRight=4;overflow=hidden;rotatable=0;points=[[0,0.5],[1,0.5]];portConstraint=eastwest;fontSize=12;whiteSpace=wrap;html=1;" vertex="1" parent="tPTqhTPvPvKgibS04VH2-1">
          <mxGeometry y="146" width="206" height="30" as="geometry" />
        </mxCell>
        <mxCell id="tPTqhTPvPvKgibS04VH2-12" value="" style="text;strokeColor=none;fillColor=none;align=left;verticalAlign=middle;spacingTop=-1;spacingLeft=4;spacingRight=4;rotatable=0;labelPosition=right;points=[];portConstraint=eastwest;" vertex="1" parent="1">
          <mxGeometry x="80" y="100" width="20" height="14" as="geometry" />
        </mxCell>
        <mxCell id="tPTqhTPvPvKgibS04VH2-13" value="" style="text;strokeColor=none;fillColor=none;align=left;verticalAlign=middle;spacingTop=-1;spacingLeft=4;spacingRight=4;rotatable=0;labelPosition=right;points=[];portConstraint=eastwest;" vertex="1" parent="1">
          <mxGeometry x="770" y="110" width="20" height="14" as="geometry" />
        </mxCell>
        <mxCell id="tPTqhTPvPvKgibS04VH2-14" value="" style="text;strokeColor=none;fillColor=none;align=left;verticalAlign=middle;spacingTop=-1;spacingLeft=4;spacingRight=4;rotatable=0;labelPosition=right;points=[];portConstraint=eastwest;" vertex="1" parent="1">
          <mxGeometry x="100" y="620" width="20" height="14" as="geometry" />
        </mxCell>
        <mxCell id="tPTqhTPvPvKgibS04VH2-15" value="" style="text;strokeColor=none;fillColor=none;align=left;verticalAlign=middle;spacingTop=-1;spacingLeft=4;spacingRight=4;rotatable=0;labelPosition=right;points=[];portConstraint=eastwest;" vertex="1" parent="1">
          <mxGeometry x="790" y="585" width="20" height="14" as="geometry" />
        </mxCell>
      </root>
    </mxGraphModel>
  </diagram>
</mxfile>
